<?xml version="1.0" encoding="us-ascii" standalone="no"?><svg xmlns="http://www.w3.org/2000/svg" xmlns:xlink="http://www.w3.org/1999/xlink" contentStyleType="text/css" height="86px" preserveAspectRatio="none" style="width:296px;height:86px;background:#FFFFFF;" version="1.1" viewBox="0 0 296 86" width="296px" zoomAndPan="magnify"><defs/><g><text fill="#000000" font-family="sans-serif" font-size="14" font-weight="bold" lengthAdjust="spacing" textLength="244" x="19" y="23.5352">Sample Algorithm Representation</text><!--entity Input--><g id="elem_Input"><rect fill="#F1F1F1" height="36.4883" rx="2.5" ry="2.5" style="stroke:#181818;stroke-width:0.5;" width="56" x="7" y="44.4883"/><text fill="#000000" font-family="sans-serif" font-size="14" lengthAdjust="spacing" textLength="36" x="17" y="68.0234">Input</text></g><!--entity Algorithm--><g id="elem_Algorithm"><rect fill="#F1F1F1" height="36.4883" rx="2.5" ry="2.5" style="stroke:#181818;stroke-width:0.5;" width="89" x="98.5" y="44.4883"/><text fill="#000000" font-family="sans-serif" font-size="14" lengthAdjust="spacing" textLength="69" x="108.5" y="68.0234">Algorithm</text></g><!--entity Output--><g id="elem_Output"><rect fill="#F1F1F1" height="36.4883" rx="2.5" ry="2.5" style="stroke:#181818;stroke-width:0.5;" width="68" x="222" y="44.4883"/><text fill="#000000" font-family="sans-serif" font-size="14" lengthAdjust="spacing" textLength="48" x="232" y="68.0234">Output</text></g><!--link Input to Algorithm--><g id="link_Input_Algorithm"><path d="M63.27,62.7383 C74.89,62.7383 80.52,62.7383 92.15,62.7383 " fill="none" id="Input-to-Algorithm" style="stroke:#181818;stroke-width:1.0;"/><polygon fill="#181818" points="98.15,62.7383,89.15,58.7383,93.15,62.7383,89.15,66.7383,98.15,62.7383" style="stroke:#181818;stroke-width:1.0;"/></g><!--link Algorithm to Output--><g id="link_Algorithm_Output"><path d="M187.58,62.7383 C198.9,62.7383 204.21,62.7383 215.52,62.7383 " fill="none" id="Algorithm-to-Output" style="stroke:#181818;stroke-width:1.0;"/><polygon fill="#181818" points="221.52,62.7383,212.52,58.7383,216.52,62.7383,212.52,66.7383,221.52,62.7383" style="stroke:#181818;stroke-width:1.0;"/></g><!--SRC=[AyaioKbLK0fEp2q0qeuvwVb5cIKPkGf1gGL5gSMfUIM99PdvUKfSN4MfoIM9UUb0HPvv1QKbI7ou9YGn_z8Ia28ki5e5NJiaHGWxWC9GTG00]--></g></svg>